<svg width="61" height="63" viewBox="0 0 61 63" fill="none" xmlns="http://www.w3.org/2000/svg">
<ellipse cx="30.5" cy="31.5" rx="30.5" ry="31.5" fill="#D9D9D9" fill-opacity="0.74"/>
<path d="M16.9259 34.0078C17.1714 34.0078 17.4069 34.1026 17.5805 34.2712C17.7542 34.4398 17.8517 34.6685 17.8517 34.907V39.4031C17.8517 39.8801 18.0468 40.3376 18.3941 40.6748C18.7413 41.0121 19.2123 41.2016 19.7034 41.2016H41.924C42.4151 41.2016 42.8861 41.0121 43.2333 40.6748C43.5806 40.3376 43.7757 39.8801 43.7757 39.4031V34.907C43.7757 34.6685 43.8732 34.4398 44.0469 34.2712C44.2205 34.1026 44.456 34.0078 44.7015 34.0078C44.9471 34.0078 45.1826 34.1026 45.3562 34.2712C45.5299 34.4398 45.6274 34.6685 45.6274 34.907V39.4031C45.6274 40.3571 45.2372 41.272 44.5427 41.9465C43.8482 42.6211 42.9062 43 41.924 43H19.7034C18.7212 43 17.7792 42.6211 17.0847 41.9465C16.3902 41.272 16 40.3571 16 39.4031V34.907C16 34.6685 16.0975 34.4398 16.2712 34.2712C16.4448 34.1026 16.6803 34.0078 16.9259 34.0078Z" fill="#4FBC3D"/>
<path d="M30.1577 18.2642C30.2437 18.1804 30.3459 18.114 30.4584 18.0687C30.5709 18.0233 30.6914 18 30.8132 18C30.935 18 31.0556 18.0233 31.1681 18.0687C31.2806 18.114 31.3827 18.1804 31.4687 18.2642L37.0239 23.6595C37.1977 23.8284 37.2954 24.0574 37.2954 24.2962C37.2954 24.535 37.1977 24.764 37.0239 24.9328C36.85 25.1017 36.6142 25.1965 36.3684 25.1965C36.1225 25.1965 35.8867 25.1017 35.7128 24.9328L31.7391 21.0716V36.8853C31.7391 37.1238 31.6415 37.3525 31.4679 37.5211C31.2943 37.6898 31.0588 37.7845 30.8132 37.7845C30.5677 37.7845 30.3322 37.6898 30.1585 37.5211C29.9849 37.3525 29.8874 37.1238 29.8874 36.8853V21.0716L25.9136 24.9328C25.8275 25.0164 25.7253 25.0827 25.6128 25.128C25.5004 25.1732 25.3798 25.1965 25.2581 25.1965C25.1363 25.1965 25.0158 25.1732 24.9033 25.128C24.7909 25.0827 24.6887 25.0164 24.6026 24.9328C24.5165 24.8492 24.4482 24.75 24.4016 24.6407C24.355 24.5315 24.3311 24.4144 24.3311 24.2962C24.3311 24.1779 24.355 24.0609 24.4016 23.9516C24.4482 23.8424 24.5165 23.7431 24.6026 23.6595L30.1577 18.2642Z" fill="#4FBC3D"/>
</svg>
